<?xml version="1.0" encoding="utf-8"?>
<!-- Generator: Adobe Illustrator 16.0.0, SVG Export Plug-In . SVG Version: 6.00 Build 0)  -->
<!DOCTYPE svg PUBLIC "-//W3C//DTD SVG 1.1//EN" "http://www.w3.org/Graphics/SVG/1.1/DTD/svg11.dtd">
<svg version="1.1" id="Layer_1" xmlns="http://www.w3.org/2000/svg" xmlns:xlink="http://www.w3.org/1999/xlink" x="0px" y="0px"
	 width="54px" height="54px" viewBox="0 0 54 54" enable-background="new 0 0 54 54" xml:space="preserve">
<path fill-rule="evenodd" clip-rule="evenodd" fill="#FFFFFF" d="M36.478,22.244c0-5.726-6.365-10.357-14.235-10.357
	c-7.863,0-14.235,4.632-14.235,10.357c0,3.273,2.108,6.202,5.381,8.104c-0.688,1.68-1.576,2.471-2.367,3.358
	c-0.224,0.266-0.483,0.507-0.405,0.888l0,0c0.061,0.345,0.344,0.586,0.646,0.586c0.024,0,0.042,0,0.06,0
	c0.61-0.078,1.196-0.182,1.74-0.32c2.041-0.525,3.943-1.395,5.623-2.591c1.129,0.205,2.325,0.326,3.557,0.326
	C30.112,32.596,36.478,27.964,36.478,22.244L36.478,22.244z M44.244,27.42c0,3.292-2.107,6.208-5.381,8.104
	c0.688,1.68,1.576,2.471,2.367,3.358c0.224,0.266,0.483,0.507,0.404,0.888l0,0c-0.084,0.368-0.386,0.628-0.706,0.592
	c-0.61-0.084-1.196-0.188-1.739-0.326c-2.041-0.525-3.944-1.395-5.623-2.591c-1.129,0.205-2.325,0.326-3.557,0.326
	c-3.66,0-7.018-1.009-9.542-2.669c0.585,0.042,1.189,0.078,1.775,0.078c4.348,0,8.455-1.25,11.589-3.515
	c3.376-2.471,5.236-5.805,5.236-9.422c0-1.057-0.163-2.083-0.465-3.074C42.016,21.049,44.244,24.044,44.244,27.42z"/>
<path fill-rule="evenodd" clip-rule="evenodd" fill="#FFFFFF" d="M26.126,0c14.429,0,26.126,11.697,26.126,26.126
	S40.555,52.252,26.126,52.252S0,40.555,0,26.126S11.697,0,26.126,0L26.126,0z M26.126,2.592c-12.998,0-23.534,10.537-23.534,23.534
	c0,12.998,10.537,23.534,23.534,23.534c12.998,0,23.534-10.536,23.534-23.534C49.66,13.129,39.124,2.592,26.126,2.592z"/>
</svg>
