<?xml version="1.0" encoding="utf-8"?>
<!-- Generator: Adobe Illustrator 16.0.0, SVG Export Plug-In . SVG Version: 6.00 Build 0)  -->
<!DOCTYPE svg PUBLIC "-//W3C//DTD SVG 1.1//EN" "http://www.w3.org/Graphics/SVG/1.1/DTD/svg11.dtd">
<svg version="1.1" id="Layer_1" xmlns="http://www.w3.org/2000/svg" xmlns:xlink="http://www.w3.org/1999/xlink" x="0px" y="0px"
	 width="154px" height="54px" viewBox="0 0 154 54" enable-background="new 0 0 154 54" xml:space="preserve">
<polyline fill-rule="evenodd" clip-rule="evenodd" fill="#21ADE4" points="25.5,0 11,6.5 2.5,17 0,30 7.5,43 18.5,50 30.5,51.5 
	115.5,51.5 152,0 "/>
<path fill-rule="evenodd" clip-rule="evenodd" fill="#95D9F0" d="M26.126,0c14.429,0,26.126,11.697,26.126,26.126
	c0,14.428-11.697,26.125-26.126,26.125S0,40.554,0,26.126C0,11.697,11.697,0,26.126,0L26.126,0z M26.126,2.592
	c-12.998,0-23.534,10.537-23.534,23.534S13.128,49.66,26.126,49.66c12.998,0,23.534-10.537,23.534-23.534S39.124,2.592,26.126,2.592
	z"/>
<path fill-rule="evenodd" clip-rule="evenodd" fill="#95D9F0" d="M38.935,35.383c0-4.108-0.962-10.423-6.293-10.423
	c-0.565,0-2.951,2.527-6.516,2.527c-3.565,0-5.951-2.527-6.516-2.527c-5.331,0-6.293,6.314-6.293,10.423
	c0,2.951,1.962,4.717,4.858,4.717h15.9C36.973,40.1,38.935,38.334,38.935,35.383L38.935,35.383z M33.114,19.135
	c0,3.858-3.13,6.989-6.988,6.989s-6.988-3.13-6.988-6.989c0-3.853,3.13-6.983,6.988-6.983S33.114,15.282,33.114,19.135z"/>
</svg>
